<mxfile host="Electron" agent="Mozilla/5.0 (X11; Linux x86_64) AppleWebKit/537.36 (KHTML, like Gecko) draw.io/26.2.2 Chrome/134.0.6998.178 Electron/35.1.2 Safari/537.36" version="26.2.2">
  <diagram name="Page-1" id="d7ET98VCBUDJkDRVsIwi">
    <mxGraphModel dx="1785" dy="1040" grid="1" gridSize="10" guides="1" tooltips="1" connect="1" arrows="1" fold="1" page="1" pageScale="1" pageWidth="827" pageHeight="1169" math="0" shadow="0">
      <root>
        <mxCell id="0" />
        <mxCell id="1" parent="0" />
        <mxCell id="Pe4aFIXO_51WKqXdeIhG-56" style="edgeStyle=orthogonalEdgeStyle;rounded=0;orthogonalLoop=1;jettySize=auto;html=1;exitX=0.5;exitY=1;exitDx=0;exitDy=0;entryX=0.5;entryY=0;entryDx=0;entryDy=0;" edge="1" parent="1" source="Pe4aFIXO_51WKqXdeIhG-1" target="Pe4aFIXO_51WKqXdeIhG-53">
          <mxGeometry relative="1" as="geometry" />
        </mxCell>
        <mxCell id="Pe4aFIXO_51WKqXdeIhG-1" value="Start" style="ellipse;whiteSpace=wrap;html=1;" vertex="1" parent="1">
          <mxGeometry x="433" y="37" width="120" height="80" as="geometry" />
        </mxCell>
        <mxCell id="Pe4aFIXO_51WKqXdeIhG-12" style="edgeStyle=orthogonalEdgeStyle;rounded=0;orthogonalLoop=1;jettySize=auto;html=1;exitX=0.5;exitY=1;exitDx=0;exitDy=0;entryX=0.5;entryY=0;entryDx=0;entryDy=0;" edge="1" parent="1" source="Pe4aFIXO_51WKqXdeIhG-2" target="Pe4aFIXO_51WKqXdeIhG-3">
          <mxGeometry relative="1" as="geometry" />
        </mxCell>
        <mxCell id="Pe4aFIXO_51WKqXdeIhG-2" value="Wait for&lt;div&gt;waste item&lt;/div&gt;" style="rounded=0;whiteSpace=wrap;html=1;" vertex="1" parent="1">
          <mxGeometry x="293" y="369" width="120" height="60" as="geometry" />
        </mxCell>
        <mxCell id="Pe4aFIXO_51WKqXdeIhG-3" value="Capture image&lt;div&gt;of item&lt;/div&gt;" style="rounded=0;whiteSpace=wrap;html=1;" vertex="1" parent="1">
          <mxGeometry x="293" y="469" width="120" height="60" as="geometry" />
        </mxCell>
        <mxCell id="Pe4aFIXO_51WKqXdeIhG-14" style="edgeStyle=orthogonalEdgeStyle;rounded=0;orthogonalLoop=1;jettySize=auto;html=1;exitX=0.5;exitY=1;exitDx=0;exitDy=0;entryX=0.5;entryY=0;entryDx=0;entryDy=0;" edge="1" parent="1" source="Pe4aFIXO_51WKqXdeIhG-4" target="Pe4aFIXO_51WKqXdeIhG-5">
          <mxGeometry relative="1" as="geometry" />
        </mxCell>
        <mxCell id="Pe4aFIXO_51WKqXdeIhG-4" value="Classify item&lt;div&gt;using AI&lt;/div&gt;" style="rounded=0;whiteSpace=wrap;html=1;" vertex="1" parent="1">
          <mxGeometry x="293" y="569" width="120" height="60" as="geometry" />
        </mxCell>
        <mxCell id="Pe4aFIXO_51WKqXdeIhG-23" style="edgeStyle=none;rounded=0;orthogonalLoop=1;jettySize=auto;html=1;exitX=1;exitY=0.5;exitDx=0;exitDy=0;entryX=0;entryY=0.5;entryDx=0;entryDy=0;" edge="1" parent="1" source="Pe4aFIXO_51WKqXdeIhG-5" target="Pe4aFIXO_51WKqXdeIhG-21">
          <mxGeometry relative="1" as="geometry" />
        </mxCell>
        <mxCell id="Pe4aFIXO_51WKqXdeIhG-28" value="No" style="edgeLabel;html=1;align=center;verticalAlign=middle;resizable=0;points=[];" vertex="1" connectable="0" parent="Pe4aFIXO_51WKqXdeIhG-23">
          <mxGeometry x="-0.1606" y="-1" relative="1" as="geometry">
            <mxPoint as="offset" />
          </mxGeometry>
        </mxCell>
        <mxCell id="Pe4aFIXO_51WKqXdeIhG-24" style="edgeStyle=none;rounded=0;orthogonalLoop=1;jettySize=auto;html=1;exitX=0;exitY=0.5;exitDx=0;exitDy=0;entryX=1;entryY=0.5;entryDx=0;entryDy=0;" edge="1" parent="1" source="Pe4aFIXO_51WKqXdeIhG-5" target="Pe4aFIXO_51WKqXdeIhG-6">
          <mxGeometry relative="1" as="geometry" />
        </mxCell>
        <mxCell id="Pe4aFIXO_51WKqXdeIhG-29" value="Yes" style="edgeLabel;html=1;align=center;verticalAlign=middle;resizable=0;points=[];" vertex="1" connectable="0" parent="Pe4aFIXO_51WKqXdeIhG-24">
          <mxGeometry x="-0.2833" relative="1" as="geometry">
            <mxPoint as="offset" />
          </mxGeometry>
        </mxCell>
        <mxCell id="Pe4aFIXO_51WKqXdeIhG-5" value="&lt;font style=&quot;font-size: 8px;&quot;&gt;Is&lt;/font&gt;&lt;div&gt;&lt;font style=&quot;font-size: 8px;&quot;&gt;item plastic,&amp;nbsp;&lt;/font&gt;&lt;span style=&quot;font-size: 8px; background-color: transparent; color: light-dark(rgb(0, 0, 0), rgb(255, 255, 255));&quot;&gt;metal&lt;/span&gt;&lt;/div&gt;&lt;div&gt;&lt;span style=&quot;font-size: 8px; background-color: transparent; color: light-dark(rgb(0, 0, 0), rgb(255, 255, 255));&quot;&gt;or paper?&lt;/span&gt;&lt;/div&gt;" style="rhombus;whiteSpace=wrap;html=1;" vertex="1" parent="1">
          <mxGeometry x="313" y="674" width="80" height="80" as="geometry" />
        </mxCell>
        <mxCell id="Pe4aFIXO_51WKqXdeIhG-27" style="edgeStyle=orthogonalEdgeStyle;rounded=0;orthogonalLoop=1;jettySize=auto;html=1;exitX=0.5;exitY=1;exitDx=0;exitDy=0;entryX=0;entryY=0.5;entryDx=0;entryDy=0;" edge="1" parent="1" source="Pe4aFIXO_51WKqXdeIhG-6" target="Pe4aFIXO_51WKqXdeIhG-7">
          <mxGeometry relative="1" as="geometry" />
        </mxCell>
        <mxCell id="Pe4aFIXO_51WKqXdeIhG-6" value="Move item above&lt;div&gt;correct compartment&lt;/div&gt;" style="rounded=0;whiteSpace=wrap;html=1;" vertex="1" parent="1">
          <mxGeometry x="133" y="685" width="120" height="60" as="geometry" />
        </mxCell>
        <mxCell id="Pe4aFIXO_51WKqXdeIhG-17" style="edgeStyle=orthogonalEdgeStyle;rounded=0;orthogonalLoop=1;jettySize=auto;html=1;exitX=0.5;exitY=1;exitDx=0;exitDy=0;entryX=0.5;entryY=0;entryDx=0;entryDy=0;" edge="1" parent="1" source="Pe4aFIXO_51WKqXdeIhG-7" target="Pe4aFIXO_51WKqXdeIhG-8">
          <mxGeometry relative="1" as="geometry" />
        </mxCell>
        <mxCell id="Pe4aFIXO_51WKqXdeIhG-7" value="Drop item and reset&lt;div&gt;compartment&lt;/div&gt;&lt;div&gt;position&lt;/div&gt;" style="rounded=0;whiteSpace=wrap;html=1;" vertex="1" parent="1">
          <mxGeometry x="293" y="800" width="120" height="60" as="geometry" />
        </mxCell>
        <mxCell id="Pe4aFIXO_51WKqXdeIhG-48" style="edgeStyle=orthogonalEdgeStyle;rounded=0;orthogonalLoop=1;jettySize=auto;html=1;exitX=0.5;exitY=1;exitDx=0;exitDy=0;entryX=0;entryY=0.5;entryDx=0;entryDy=0;" edge="1" parent="1" source="Pe4aFIXO_51WKqXdeIhG-8" target="Pe4aFIXO_51WKqXdeIhG-53">
          <mxGeometry relative="1" as="geometry">
            <mxPoint x="404" y="187" as="targetPoint" />
            <Array as="points">
              <mxPoint x="354" y="980" />
              <mxPoint x="100" y="980" />
              <mxPoint x="100" y="192" />
            </Array>
          </mxGeometry>
        </mxCell>
        <mxCell id="Pe4aFIXO_51WKqXdeIhG-8" value="Dispense reward&lt;div&gt;(if item is eligible)&lt;/div&gt;" style="rounded=0;whiteSpace=wrap;html=1;" vertex="1" parent="1">
          <mxGeometry x="293" y="900" width="120" height="60" as="geometry" />
        </mxCell>
        <mxCell id="Pe4aFIXO_51WKqXdeIhG-9" value="End" style="ellipse;whiteSpace=wrap;html=1;" vertex="1" parent="1">
          <mxGeometry x="576" y="565" width="120" height="80" as="geometry" />
        </mxCell>
        <mxCell id="Pe4aFIXO_51WKqXdeIhG-13" style="edgeStyle=orthogonalEdgeStyle;rounded=0;orthogonalLoop=1;jettySize=auto;html=1;exitX=0.5;exitY=1;exitDx=0;exitDy=0;entryX=0.502;entryY=-0.047;entryDx=0;entryDy=0;entryPerimeter=0;" edge="1" parent="1" source="Pe4aFIXO_51WKqXdeIhG-3" target="Pe4aFIXO_51WKqXdeIhG-4">
          <mxGeometry relative="1" as="geometry" />
        </mxCell>
        <mxCell id="Pe4aFIXO_51WKqXdeIhG-26" style="edgeStyle=orthogonalEdgeStyle;rounded=0;orthogonalLoop=1;jettySize=auto;html=1;exitX=0.5;exitY=1;exitDx=0;exitDy=0;entryX=1;entryY=0.5;entryDx=0;entryDy=0;" edge="1" parent="1" source="Pe4aFIXO_51WKqXdeIhG-21" target="Pe4aFIXO_51WKqXdeIhG-7">
          <mxGeometry relative="1" as="geometry" />
        </mxCell>
        <mxCell id="Pe4aFIXO_51WKqXdeIhG-21" value="Move item above&lt;div&gt;&quot;Other&quot; compartment&lt;/div&gt;" style="rounded=0;whiteSpace=wrap;html=1;" vertex="1" parent="1">
          <mxGeometry x="453" y="685" width="120" height="60" as="geometry" />
        </mxCell>
        <mxCell id="Pe4aFIXO_51WKqXdeIhG-35" style="edgeStyle=orthogonalEdgeStyle;rounded=0;orthogonalLoop=1;jettySize=auto;html=1;exitX=0.5;exitY=1;exitDx=0;exitDy=0;entryX=0.5;entryY=0;entryDx=0;entryDy=0;" edge="1" parent="1" source="Pe4aFIXO_51WKqXdeIhG-33" target="Pe4aFIXO_51WKqXdeIhG-9">
          <mxGeometry relative="1" as="geometry" />
        </mxCell>
        <mxCell id="Pe4aFIXO_51WKqXdeIhG-33" value="Indicate bin full&lt;div&gt;via LED&lt;/div&gt;" style="rounded=0;whiteSpace=wrap;html=1;" vertex="1" parent="1">
          <mxGeometry x="576" y="475" width="120" height="60" as="geometry" />
        </mxCell>
        <mxCell id="Pe4aFIXO_51WKqXdeIhG-41" value="&lt;span style=&quot;font-size: 8px;&quot;&gt;Is one&lt;/span&gt;&lt;div&gt;&lt;span style=&quot;font-size: 8px;&quot;&gt;compartment&lt;/span&gt;&lt;div&gt;&lt;span style=&quot;font-size: 8px;&quot;&gt;full?&lt;/span&gt;&lt;/div&gt;&lt;/div&gt;" style="rhombus;whiteSpace=wrap;html=1;" vertex="1" parent="1">
          <mxGeometry x="453" y="247" width="80" height="80" as="geometry" />
        </mxCell>
        <mxCell id="Pe4aFIXO_51WKqXdeIhG-55" style="edgeStyle=orthogonalEdgeStyle;rounded=0;orthogonalLoop=1;jettySize=auto;html=1;exitX=0.5;exitY=1;exitDx=0;exitDy=0;" edge="1" parent="1" source="Pe4aFIXO_51WKqXdeIhG-53" target="Pe4aFIXO_51WKqXdeIhG-41">
          <mxGeometry relative="1" as="geometry" />
        </mxCell>
        <mxCell id="Pe4aFIXO_51WKqXdeIhG-53" value="" style="shape=ellipse;fillColor=#0065FF;strokeColor=none;html=1;sketch=0;" vertex="1" parent="1">
          <mxGeometry x="488" y="187" width="10" height="10" as="geometry" />
        </mxCell>
        <mxCell id="Pe4aFIXO_51WKqXdeIhG-58" style="edgeStyle=orthogonalEdgeStyle;rounded=0;orthogonalLoop=1;jettySize=auto;html=1;exitX=0.5;exitY=1;exitDx=0;exitDy=0;entryX=0.5;entryY=0;entryDx=0;entryDy=0;" edge="1" parent="1" source="Pe4aFIXO_51WKqXdeIhG-57" target="Pe4aFIXO_51WKqXdeIhG-33">
          <mxGeometry relative="1" as="geometry" />
        </mxCell>
        <mxCell id="Pe4aFIXO_51WKqXdeIhG-57" value="Lock bin" style="rounded=0;whiteSpace=wrap;html=1;" vertex="1" parent="1">
          <mxGeometry x="576" y="369" width="120" height="60" as="geometry" />
        </mxCell>
        <mxCell id="Pe4aFIXO_51WKqXdeIhG-59" style="edgeStyle=orthogonalEdgeStyle;rounded=0;orthogonalLoop=1;jettySize=auto;html=1;exitX=1;exitY=0.5;exitDx=0;exitDy=0;entryX=0.495;entryY=0.047;entryDx=0;entryDy=0;entryPerimeter=0;" edge="1" parent="1" source="Pe4aFIXO_51WKqXdeIhG-41" target="Pe4aFIXO_51WKqXdeIhG-57">
          <mxGeometry relative="1" as="geometry" />
        </mxCell>
        <mxCell id="Pe4aFIXO_51WKqXdeIhG-60" value="Yes" style="edgeLabel;html=1;align=center;verticalAlign=middle;resizable=0;points=[];" vertex="1" connectable="0" parent="Pe4aFIXO_51WKqXdeIhG-59">
          <mxGeometry x="-0.6899" relative="1" as="geometry">
            <mxPoint as="offset" />
          </mxGeometry>
        </mxCell>
        <mxCell id="Pe4aFIXO_51WKqXdeIhG-61" style="edgeStyle=orthogonalEdgeStyle;rounded=0;orthogonalLoop=1;jettySize=auto;html=1;exitX=0;exitY=0.5;exitDx=0;exitDy=0;entryX=0.52;entryY=-0.011;entryDx=0;entryDy=0;entryPerimeter=0;" edge="1" parent="1" source="Pe4aFIXO_51WKqXdeIhG-41" target="Pe4aFIXO_51WKqXdeIhG-2">
          <mxGeometry relative="1" as="geometry" />
        </mxCell>
        <mxCell id="Pe4aFIXO_51WKqXdeIhG-62" value="No" style="edgeLabel;html=1;align=center;verticalAlign=middle;resizable=0;points=[];" vertex="1" connectable="0" parent="Pe4aFIXO_51WKqXdeIhG-61">
          <mxGeometry x="-0.6214" relative="1" as="geometry">
            <mxPoint as="offset" />
          </mxGeometry>
        </mxCell>
      </root>
    </mxGraphModel>
  </diagram>
</mxfile>
